<?xml version="1.0" encoding="utf-8"?>
<svg xmlns="http://www.w3.org/2000/svg" viewBox="0 0 500 500" xmlns:bx="https://boxy-svg.com">
  <defs>
    <bx:export>
      <bx:file format="svg"/>
      <bx:file format="svg" path="Untitled 2.svg"/>
    </bx:export>
  </defs>
  <path d="M 243.468 431.665 C 184.321 431.665 135.623 392.395 129.37 341.941 C 124.91 340.297 120.608 338.038 116.64 335.298 C 109.993 330.711 103.962 324.413 98.705 316.882 C 92.93 308.609 86.252 296.417 83.991 287.018 C 82.057 278.98 82.959 271.14 83.991 264.122 C 84.945 257.624 86.639 251.811 89.509 246.204 C 92.515 240.328 95.739 234.23 101.924 229.779 C 108.234 225.238 119.593 221.119 128.907 218.986 C 129.696 215.187 130.955 211.447 132.413 207.866 C 133.176 203.06 134.566 198.73 136.375 194.513 C 136.441 194.16 136.515 193.805 136.597 193.443 C 138.76 183.9 145.508 166.489 154.071 158.104 C 162.566 149.785 176.137 145.134 187.64 143.172 C 198.984 141.236 212.857 142.292 222.587 146.158 C 229.262 148.811 235.59 154.021 240.3 159.031 C 241.211 158.079 242.116 157.17 243.005 156.311 C 248.234 151.256 253.521 147.5 259.56 144.367 C 265.756 141.15 271.359 138.071 279.792 137.398 C 290.942 136.507 310.967 138.658 322.097 143.371 C 331.36 147.293 337.706 153.55 343.711 160.792 C 349.883 168.236 355.207 178.145 358.425 187.67 C 360.306 193.234 361.784 198.789 362.552 204.691 C 364.863 205.144 367.128 205.836 369.369 206.882 C 375.687 209.832 384.743 218.746 387.304 221.814 C 388.457 223.197 388.044 224.046 388.683 224.801 C 389.288 225.514 389.921 224.978 390.983 226.294 C 393.679 229.639 402.19 243.084 404.778 252.177 C 407.297 261.027 407.535 270.93 406.617 280.05 C 405.699 289.18 403.129 298.277 399.26 306.927 C 395.17 316.067 388.942 326.655 382.246 333.308 C 376.067 339.444 367.811 344.258 361.093 346.248 C 359.576 346.698 358.145 347.032 356.745 347.246 C 347.859 395.122 300.526 431.665 243.468 431.665 Z" style="fill: rgb(70, 65, 65); stroke: rgb(33, 28, 28); stroke-width: 12px;"/>
  <ellipse style="stroke: rgb(0, 0, 0); stroke-width: 0px; fill: rgb(246, 213, 213); transform-box: fill-box; transform-origin: 50% 50%;" cx="-197.73" cy="-227.55" rx="30.411" ry="41.192" transform="matrix(0.992546, -0.121869, 0.121869, 0.992546, 394.386025, 430.250807)"/>
  <ellipse style="stroke: rgb(0, 0, 0); stroke-width: 0; fill: rgb(246, 213, 213); transform-origin: -197.73px -227.55px;" cx="-197.73" cy="-227.55" rx="23.715" ry="34.34" transform="matrix(0.978148, -0.207911, 0.207911, 0.978148, 333.335045, 505.149959)"/>
  <ellipse style="stroke: rgb(0, 0, 0); stroke-width: 0; transform-origin: -197.73px -227.55px; fill: rgb(246, 206, 206);" cx="-197.73" cy="-227.55" rx="23.715" ry="34.34" transform="matrix(-0.981627, -0.190809, 0.190809, -0.981627, 552.007245, 502.310584)"/>
  <ellipse style="stroke: rgb(0, 0, 0); stroke-width: 0; fill: rgb(246, 213, 213); transform-origin: -197.73px -227.55px;" cx="-197.73" cy="-227.55" rx="30.411" ry="41.192" transform="matrix(0.999391, 0.034899, -0.034899, 0.999391, 492.37242, 428.013333)"/>
  <ellipse style="stroke: rgb(0, 0, 0); stroke-width: 0; fill: rgb(249, 230, 230); transform-origin: -197.73px -227.55px;" cx="-197.73" cy="-227.55" rx="12.165" ry="18.253" transform="matrix(0.999391, 0.034899, -0.034899, 0.999391, 482.917859, 416.421015)"/>
  <ellipse style="stroke: rgb(0, 0, 0); stroke-width: 0; fill: rgb(249, 230, 230); transform-origin: -197.73px -227.55px;" cx="-197.73" cy="-227.55" rx="12.165" ry="18.253" transform="matrix(0.999391, 0.034899, -0.034899, 0.999391, 383.648661, 416.043452)"/>
  <ellipse style="stroke: rgb(0, 0, 0); stroke-width: 0; fill: rgb(249, 230, 230); transform-origin: -197.73px -227.55px;" cx="-197.73" cy="-227.55" rx="6.971" ry="12.446" transform="matrix(0.999391, 0.034899, -0.034899, 0.999391, 322.803232, 491.850643)"/>
  <ellipse style="stroke: rgb(0, 0, 0); stroke-width: 0; fill: rgb(249, 230, 230); transform-origin: -197.73px -227.55px;" cx="-197.73" cy="-227.55" rx="7.812" ry="12.446" transform="matrix(0.898794, 0.438371, -0.438371, 0.898794, 550.998124, 484.825673)"/>
  <ellipse style="stroke: rgb(0, 0, 0); stroke-width: 0px; fill: rgb(246, 206, 206);" cx="217.339" cy="311.182" rx="33.415" ry="36.906"/>
  <ellipse style="stroke: rgb(0, 0, 0); stroke-width: 0px; fill: rgb(246, 206, 206);" cx="276.188" cy="312.18" rx="34.413" ry="37.903"/>
  <ellipse style="stroke-width: 0; transform-box: fill-box; transform-origin: 50% 50%; stroke: rgb(247, 198, 198); fill: rgb(246, 206, 206);" cx="264.718" cy="334.497" rx="24.936" ry="47.558" transform="matrix(0.819152, 0.573577, -0.573577, 0.819152, 10.811363, 6.601779)"/>
  <ellipse style="stroke-width: 0; stroke: rgb(244, 226, 226); transform-origin: 264.718px 334.497px; fill: rgb(246, 206, 206);" cx="264.718" cy="334.497" rx="23.528" ry="47.558" transform="matrix(0.87462, -0.484809, 0.484809, 0.87462, -49.638818, 2.933643)"/>
  <ellipse style="stroke: rgb(0, 0, 0); stroke-dashoffset: 100px; stroke-width: 0px; fill: rgb(246, 206, 206);" cx="247.778" cy="351.571" rx="36.906" ry="34.413"/>
  <ellipse style="stroke: rgb(0, 0, 0); stroke-width: 0; fill: rgb(249, 230, 230); transform-origin: -197.73px -227.55px;" cx="-197.73" cy="-227.55" rx="11.221" ry="18.253" transform="matrix(0.515038, 0.857167, -0.857167, 0.515038, 410.094846, 522.961389)"/>
  <ellipse style="stroke: rgb(0, 0, 0); stroke-width: 0; fill: rgb(249, 230, 230); transform-origin: -197.73px -227.55px;" cx="-197.73" cy="-227.55" rx="4.454" ry="3.118" transform="matrix(0.515038, 0.857167, -0.857167, 0.515038, 394.122277, 540.726938)"/>
  <path d="M 310.602 121.673 L 322.571 141.622 L 298.632 141.622 L 310.602 121.673 Z" bx:shape="triangle 298.632 121.673 23.939 19.949 0.5 0 1@b61671c5" style="stroke: rgb(0, 0, 0); stroke-width: 0px; fill: rgb(33, 28, 28); transform-box: fill-box; transform-origin: 50% 50%;" transform="matrix(0.956305, 0.292372, -0.292372, 0.956305, 5.999412, 0.999633)"/>
  <path d="M 310.602 121.673 L 322.571 141.622 L 298.632 141.622 L 310.602 121.673 Z" bx:shape="triangle 298.632 121.673 23.939 19.949 0.5 0 1@b61671c5" style="stroke: rgb(0, 0, 0); stroke-width: 0; fill: rgb(33, 28, 28); transform-origin: 310.602px 131.647px;" transform="matrix(0.996195, -0.087156, 0.087156, 0.996195, -120.76682, 2.99589)"/>
  <path d="M 310.602 121.673 L 322.571 141.622 L 298.632 141.622 L 310.602 121.673 Z" bx:shape="triangle 298.632 121.673 23.939 19.949 0.5 0 1@b61671c5" style="stroke: rgb(0, 0, 0); stroke-width: 0; fill: rgb(33, 28, 28); transform-origin: 310.602px 131.647px;" transform="matrix(0.601815, 0.798636, -0.798636, 0.601815, -226.373182, 119.744828)"/>
  <path d="M 310.602 121.673 L 322.571 141.622 L 298.632 141.622 L 310.602 121.673 Z" bx:shape="triangle 298.632 121.673 23.939 19.949 0.5 0 1@b61671c5" style="stroke: rgb(0, 0, 0); stroke-width: 0; fill: rgb(33, 28, 28); transform-origin: 310.602px 131.647px;" transform="matrix(0.374608, 0.927183, -0.927183, 0.374608, 100.713742, 120.695664)"/>
</svg>